<svg xmlns="http://www.w3.org/2000/svg" viewBox="0 0 1600 900">
<defs><linearGradient id="g" x1="0" x2="1"><stop stop-color="#899aa9"/><stop offset="1" stop-color="#d9dfdf"/></linearGradient></defs>
<rect width="1600" height="900" fill="#8da36a"/>
<rect y="540" width="1600" height="360" fill="#67727c"/>
<rect x="160" y="160" width="430" height="390" rx="6" fill="#d9d3c8"/>
<polygon points="110,170 380,25 650,170" fill="#435066"/>
<rect x="230" y="280" width="120" height="190" fill="#75899b"/>
<rect x="410" y="260" width="120" height="110" fill="#8ca7bd"/>
<ellipse cx="1040" cy="680" rx="430" ry="65" fill="#303842" opacity=".45"/>
<rect x="690" y="330" width="610" height="300" rx="42" fill="url(#g)" stroke="#20364c" stroke-width="12"/>
<rect x="720" y="375" width="175" height="105" rx="12" fill="#28445e"/>
<rect x="930" y="360" width="260" height="130" rx="12" fill="#edf1f4"/>
<text x="965" y="420" font-family="Arial" font-weight="900" font-size="44" fill="#071d35">MR. PHIL'S</text>
<text x="995" y="462" font-family="Arial" font-weight="900" font-size="24" fill="#df2f2f">HEATING &amp; AIR</text>
<rect x="650" y="470" width="160" height="140" rx="28" fill="#edf1f4" stroke="#20364c" stroke-width="10"/>
<circle cx="790" cy="645" r="66" fill="#1e2630"/><circle cx="1210" cy="645" r="66" fill="#1e2630"/>
<circle cx="790" cy="645" r="28" fill="#c8d0d7"/><circle cx="1210" cy="645" r="28" fill="#c8d0d7"/>
</svg>